<?xml version="1.0" standalone="no"?><svg xmlns="http://www.w3.org/2000/svg" viewBox="0 0 1440 320"><path fill="#0099ff" fill-opacity="1" d="M0,288L10.9,277.3C21.8,267,44,245,65,240C87.3,235,109,245,131,208C152.7,171,175,85,196,90.7C218.2,96,240,192,262,229.3C283.6,267,305,245,327,234.7C349.1,224,371,224,393,213.3C414.5,203,436,181,458,149.3C480,117,502,75,524,74.7C545.5,75,567,117,589,122.7C610.9,128,633,96,655,85.3C676.4,75,698,85,720,112C741.8,139,764,181,785,170.7C807.3,160,829,96,851,74.7C872.7,53,895,75,916,96C938.2,117,960,139,982,128C1003.6,117,1025,75,1047,96C1069.1,117,1091,203,1113,234.7C1134.5,267,1156,245,1178,245.3C1200,245,1222,267,1244,277.3C1265.5,288,1287,288,1309,256C1330.9,224,1353,160,1375,122.7C1396.4,85,1418,75,1429,69.3L1440,64L1440,0L1429.1,0C1418.2,0,1396,0,1375,0C1352.7,0,1331,0,1309,0C1287.3,0,1265,0,1244,0C1221.8,0,1200,0,1178,0C1156.4,0,1135,0,1113,0C1090.9,0,1069,0,1047,0C1025.5,0,1004,0,982,0C960,0,938,0,916,0C894.5,0,873,0,851,0C829.1,0,807,0,785,0C763.6,0,742,0,720,0C698.2,0,676,0,655,0C632.7,0,611,0,589,0C567.3,0,545,0,524,0C501.8,0,480,0,458,0C436.4,0,415,0,393,0C370.9,0,349,0,327,0C305.5,0,284,0,262,0C240,0,218,0,196,0C174.5,0,153,0,131,0C109.1,0,87,0,65,0C43.6,0,22,0,11,0L0,0Z"></path></svg>